<svg width="193" height="78" viewBox="0 0 193 78" fill="none" xmlns="http://www.w3.org/2000/svg">
<rect x="3" y="4" width="71" height="71" rx="35.5" fill="white"/>
<rect x="9" y="10" width="59" height="59" rx="29.5" stroke="#081351" stroke-width="4"/>
<path d="M22.4691 30.896V48.824C22.4691 48.992 22.5651 49.1 22.7571 49.148C23.5251 49.268 24.2451 49.328 24.9171 49.328C27.7251 49.328 29.7891 48.572 31.1091 47.06C32.4291 45.524 33.0891 43.004 33.0891 39.5C33.0891 36.356 32.4171 34.052 31.0731 32.588C29.7291 31.124 27.6771 30.392 24.9171 30.392C24.2451 30.392 23.5251 30.452 22.7571 30.572C22.5651 30.62 22.4691 30.728 22.4691 30.896ZM19.5171 53.108C18.9171 53.036 18.4251 52.784 18.0411 52.352C17.6571 51.896 17.4651 51.368 17.4651 50.768V28.952C17.4651 28.352 17.6571 27.836 18.0411 27.404C18.4251 26.948 18.9171 26.684 19.5171 26.612C21.0531 26.444 22.7691 26.36 24.6651 26.36C28.9371 26.36 32.2011 27.476 34.4571 29.708C36.7371 31.94 37.8771 35.204 37.8771 39.5C37.8771 44.108 36.7371 47.576 34.4571 49.904C32.2011 52.208 28.9371 53.36 24.6651 53.36C22.7691 53.36 21.0531 53.276 19.5171 53.108Z" fill="#FF671F"/>
<path d="M46.9018 41.336V48.896C46.9018 49.088 47.0098 49.208 47.2258 49.256C48.0658 49.376 48.8578 49.436 49.6018 49.436C51.5938 49.436 53.0458 49.076 53.9578 48.356C54.8938 47.612 55.3618 46.484 55.3618 44.972C55.3618 43.628 54.8218 42.644 53.7418 42.02C52.6858 41.372 50.9218 41.048 48.4498 41.048H47.1898C46.9978 41.048 46.9018 41.144 46.9018 41.336ZM46.9018 30.824V36.98C46.9018 37.196 46.9978 37.304 47.1898 37.304H48.2338C50.4658 37.304 52.0738 37.004 53.0578 36.404C54.0658 35.78 54.5698 34.868 54.5698 33.668C54.5698 32.516 54.1618 31.664 53.3458 31.112C52.5298 30.56 51.1978 30.284 49.3498 30.284C48.5098 30.284 47.7898 30.332 47.1898 30.428C46.9978 30.476 46.9018 30.608 46.9018 30.824ZM43.9498 53.072C43.3738 53.024 42.8938 52.784 42.5098 52.352C42.1258 51.896 41.9338 51.368 41.9338 50.768V28.952C41.9338 28.352 42.1258 27.836 42.5098 27.404C42.8938 26.948 43.3858 26.696 43.9858 26.648C45.7618 26.456 47.4778 26.36 49.1338 26.36C55.8538 26.36 59.2138 28.556 59.2138 32.948C59.2138 34.412 58.7218 35.684 57.7378 36.764C56.7538 37.844 55.4578 38.54 53.8498 38.852C53.8258 38.852 53.8138 38.864 53.8138 38.888C53.8138 38.936 53.8258 38.96 53.8498 38.96C55.8178 39.248 57.3538 39.98 58.4578 41.156C59.5858 42.308 60.1498 43.736 60.1498 45.44C60.1498 48.08 59.2858 50.06 57.5578 51.38C55.8298 52.7 53.1418 53.36 49.4938 53.36C47.6698 53.36 45.8218 53.264 43.9498 53.072Z" fill="#046A38"/>
<path d="M83.79 29.512V38.843C83.79 39.0723 83.919 39.187 84.177 39.187H86.327C91.4297 39.187 93.981 37.3667 93.981 33.726C93.981 30.4867 91.616 28.867 86.886 28.867C86.026 28.867 85.123 28.9387 84.177 29.082C83.919 29.1393 83.79 29.2827 83.79 29.512ZM80.307 56C79.6477 56 79.0743 55.7563 78.587 55.269C78.0997 54.7817 77.856 54.2083 77.856 53.549V27.276C77.856 26.588 78.0853 25.9717 78.544 25.427C79.0027 24.8823 79.576 24.5813 80.264 24.524C82.7007 24.2947 85.0513 24.18 87.316 24.18C91.53 24.18 94.6833 24.9683 96.776 26.545C98.8687 28.093 99.915 30.286 99.915 33.124C99.915 35.1593 99.356 36.951 98.238 38.499C97.1487 40.047 95.6723 41.1363 93.809 41.767C93.7803 41.767 93.766 41.7813 93.766 41.81C93.766 41.8673 93.7803 41.896 93.809 41.896C95.185 42.756 96.3603 44.4473 97.335 46.97L99.915 53.721C100.116 54.2657 100.044 54.7817 99.7 55.269C99.3847 55.7563 98.9403 56 98.367 56H97.034C96.2887 56 95.615 55.7993 95.013 55.398C94.411 54.968 93.981 54.409 93.723 53.721L91.315 47.099C90.799 45.723 90.2113 44.82 89.552 44.39C88.8927 43.96 87.7603 43.745 86.155 43.745H84.177C83.919 43.745 83.79 43.874 83.79 44.132V53.549C83.79 54.2083 83.5463 54.7817 83.059 55.269C82.6003 55.7563 82.0413 56 81.382 56H80.307ZM112.955 37.209C111.493 37.209 110.361 37.6247 109.558 38.456C108.784 39.2587 108.297 40.563 108.096 42.369C108.096 42.5983 108.211 42.713 108.44 42.713H116.868C117.097 42.713 117.212 42.5983 117.212 42.369C117.097 38.929 115.678 37.209 112.955 37.209ZM114.03 56.43C110.275 56.43 107.379 55.4553 105.344 53.506C103.337 51.528 102.334 48.6327 102.334 44.82C102.334 41.036 103.237 38.155 105.043 36.177C106.849 34.199 109.458 33.21 112.869 33.21C119.233 33.21 122.501 36.822 122.673 44.046C122.702 44.734 122.458 45.3073 121.942 45.766C121.426 46.2247 120.824 46.454 120.136 46.454H108.397C108.139 46.454 108.039 46.583 108.096 46.841C108.297 48.7617 108.927 50.1663 109.988 51.055C111.077 51.915 112.654 52.345 114.718 52.345C116.008 52.345 117.441 52.13 119.018 51.7C119.534 51.5567 120.007 51.6427 120.437 51.958C120.896 52.2733 121.125 52.7033 121.125 53.248C121.125 53.9073 120.924 54.495 120.523 55.011C120.15 55.4983 119.649 55.7993 119.018 55.914C117.413 56.258 115.75 56.43 114.03 56.43ZM135.01 46.97C132 46.3107 129.85 45.4077 128.56 44.261C127.298 43.1143 126.668 41.6237 126.668 39.789C126.668 37.725 127.427 36.1197 128.947 34.973C130.495 33.7977 132.774 33.21 135.784 33.21C137.676 33.21 139.553 33.382 141.417 33.726C142.047 33.8407 142.549 34.156 142.922 34.672C143.323 35.1593 143.524 35.7327 143.524 36.392C143.524 36.9367 143.309 37.381 142.879 37.725C142.449 38.0403 141.961 38.1263 141.417 37.983C139.811 37.5817 138.12 37.381 136.343 37.381C133.763 37.381 132.473 38.0977 132.473 39.531C132.473 40.219 132.716 40.7923 133.204 41.251C133.691 41.7097 134.522 42.068 135.698 42.326C138.994 42.9853 141.245 43.874 142.449 44.992C143.681 46.11 144.298 47.744 144.298 49.894C144.298 51.958 143.524 53.5633 141.976 54.71C140.428 55.8567 138.177 56.43 135.225 56.43C133.304 56.43 131.34 56.2007 129.334 55.742C128.703 55.5987 128.187 55.269 127.786 54.753C127.384 54.2083 127.184 53.592 127.184 52.904C127.184 52.3593 127.399 51.9437 127.829 51.657C128.287 51.3703 128.775 51.2987 129.291 51.442C131.154 51.958 132.917 52.216 134.58 52.216C137.188 52.216 138.493 51.442 138.493 49.894C138.493 49.1487 138.235 48.561 137.719 48.131C137.231 47.701 136.328 47.314 135.01 46.97ZM149.718 38.671C149.144 38.671 148.657 38.4703 148.256 38.069C147.854 37.639 147.654 37.1373 147.654 36.564C147.654 35.9907 147.854 35.5033 148.256 35.102C148.657 34.7007 149.144 34.5 149.718 34.5H151.782C152.04 34.5 152.169 34.371 152.169 34.113V28.781C152.169 28.1217 152.398 27.5483 152.857 27.061C153.344 26.5737 153.917 26.33 154.577 26.33H155.437C156.096 26.33 156.669 26.5737 157.157 27.061C157.644 27.5483 157.888 28.1217 157.888 28.781V34.113C157.888 34.371 158.017 34.5 158.275 34.5H163.177C163.75 34.5 164.237 34.7007 164.639 35.102C165.069 35.5033 165.284 35.9907 165.284 36.564C165.284 37.1373 165.069 37.639 164.639 38.069C164.237 38.4703 163.75 38.671 163.177 38.671H158.275C158.017 38.671 157.888 38.7857 157.888 39.015V47.701C157.888 49.5643 158.088 50.7683 158.49 51.313C158.891 51.8577 159.722 52.13 160.984 52.13C161.672 52.13 162.188 52.1013 162.532 52.044C163.105 51.9867 163.607 52.1157 164.037 52.431C164.467 52.7463 164.682 53.1763 164.682 53.721C164.682 54.3517 164.467 54.925 164.037 55.441C163.635 55.9283 163.134 56.2007 162.532 56.258C161.27 56.3727 160.324 56.43 159.694 56.43C156.913 56.43 154.964 55.8423 153.846 54.667C152.728 53.463 152.169 51.3273 152.169 48.26V39.015C152.169 38.7857 152.04 38.671 151.782 38.671H149.718ZM183.975 39.187C183.143 37.983 181.882 37.381 180.191 37.381C178.499 37.381 177.224 37.983 176.364 39.187C175.532 40.3623 175.117 42.24 175.117 44.82C175.117 47.4 175.532 49.292 176.364 50.496C177.224 51.6713 178.499 52.259 180.191 52.259C181.882 52.259 183.143 51.6713 183.975 50.496C184.835 49.292 185.265 47.4 185.265 44.82C185.265 42.24 184.835 40.3623 183.975 39.187ZM188.189 53.42C186.297 55.4267 183.631 56.43 180.191 56.43C176.751 56.43 174.07 55.4267 172.15 53.42C170.258 51.3847 169.312 48.518 169.312 44.82C169.312 41.122 170.258 38.2697 172.15 36.263C174.07 34.2277 176.751 33.21 180.191 33.21C183.631 33.21 186.297 34.2277 188.189 36.263C190.109 38.2697 191.07 41.122 191.07 44.82C191.07 48.518 190.109 51.3847 188.189 53.42Z" fill="#081351"/>
</svg>
