<svg width="193" height="78" viewBox="0 0 193 78" fill="none" xmlns="http://www.w3.org/2000/svg">
<rect x="3" y="4" width="71" height="71" rx="35.5" fill="white"/>
<rect x="9" y="10" width="59" height="59" rx="29.5" stroke="#081351" stroke-width="4"/>
<path d="M22.4691 30.896V48.824C22.4691 48.992 22.5651 49.1 22.7571 49.148C23.5251 49.268 24.2451 49.328 24.9171 49.328C27.7251 49.328 29.7891 48.572 31.1091 47.06C32.4291 45.524 33.0891 43.004 33.0891 39.5C33.0891 36.356 32.4171 34.052 31.0731 32.588C29.7291 31.124 27.6771 30.392 24.9171 30.392C24.2451 30.392 23.5251 30.452 22.7571 30.572C22.5651 30.62 22.4691 30.728 22.4691 30.896ZM19.5171 53.108C18.9171 53.036 18.4251 52.784 18.0411 52.352C17.6571 51.896 17.4651 51.368 17.4651 50.768V28.952C17.4651 28.352 17.6571 27.836 18.0411 27.404C18.4251 26.948 18.9171 26.684 19.5171 26.612C21.0531 26.444 22.7691 26.36 24.6651 26.36C28.9371 26.36 32.2011 27.476 34.4571 29.708C36.7371 31.94 37.8771 35.204 37.8771 39.5C37.8771 44.108 36.7371 47.576 34.4571 49.904C32.2011 52.208 28.9371 53.36 24.6651 53.36C22.7691 53.36 21.0531 53.276 19.5171 53.108Z" fill="#FF671F"/>
<path d="M46.9018 41.336V48.896C46.9018 49.088 47.0098 49.208 47.2258 49.256C48.0658 49.376 48.8578 49.436 49.6018 49.436C51.5938 49.436 53.0458 49.076 53.9578 48.356C54.8938 47.612 55.3618 46.484 55.3618 44.972C55.3618 43.628 54.8218 42.644 53.7418 42.02C52.6858 41.372 50.9218 41.048 48.4498 41.048H47.1898C46.9978 41.048 46.9018 41.144 46.9018 41.336ZM46.9018 30.824V36.98C46.9018 37.196 46.9978 37.304 47.1898 37.304H48.2338C50.4658 37.304 52.0738 37.004 53.0578 36.404C54.0658 35.78 54.5698 34.868 54.5698 33.668C54.5698 32.516 54.1618 31.664 53.3458 31.112C52.5298 30.56 51.1978 30.284 49.3498 30.284C48.5098 30.284 47.7898 30.332 47.1898 30.428C46.9978 30.476 46.9018 30.608 46.9018 30.824ZM43.9498 53.072C43.3738 53.024 42.8938 52.784 42.5098 52.352C42.1258 51.896 41.9338 51.368 41.9338 50.768V28.952C41.9338 28.352 42.1258 27.836 42.5098 27.404C42.8938 26.948 43.3858 26.696 43.9858 26.648C45.7618 26.456 47.4778 26.36 49.1338 26.36C55.8538 26.36 59.2138 28.556 59.2138 32.948C59.2138 34.412 58.7218 35.684 57.7378 36.764C56.7538 37.844 55.4578 38.54 53.8498 38.852C53.8258 38.852 53.8138 38.864 53.8138 38.888C53.8138 38.936 53.8258 38.96 53.8498 38.96C55.8178 39.248 57.3538 39.98 58.4578 41.156C59.5858 42.308 60.1498 43.736 60.1498 45.44C60.1498 48.08 59.2858 50.06 57.5578 51.38C55.8298 52.7 53.1418 53.36 49.4938 53.36C47.6698 53.36 45.8218 53.264 43.9498 53.072Z" fill="#046A38"/>
<path d="M83.79 29.512V38.843C83.79 39.0723 83.919 39.187 84.177 39.187H86.327C91.4297 39.187 93.981 37.3667 93.981 33.726C93.981 30.4867 91.616 28.867 86.886 28.867C86.026 28.867 85.123 28.9387 84.177 29.082C83.919 29.1393 83.79 29.2827 83.79 29.512ZM80.307 56C79.6477 56 79.0743 55.7563 78.587 55.269C78.0997 54.7817 77.856 54.2083 77.856 53.549V27.276C77.856 26.588 78.0853 25.9717 78.544 25.427C79.0027 24.8823 79.576 24.5813 80.264 24.524C82.7007 24.2947 85.0513 24.18 87.316 24.18C91.53 24.18 94.6833 24.9683 96.776 26.545C98.8687 28.093 99.915 30.286 99.915 33.124C99.915 35.1593 99.356 36.951 98.238 38.499C97.1487 40.047 95.6723 41.1363 93.809 41.767C93.7803 41.767 93.766 41.7813 93.766 41.81C93.766 41.8673 93.7803 41.896 93.809 41.896C95.185 42.756 96.3603 44.4473 97.335 46.97L99.915 53.721C100.116 54.2657 100.044 54.7817 99.7 55.269C99.3847 55.7563 98.9403 56 98.367 56H97.034C96.2887 56 95.615 55.7993 95.013 55.398C94.411 54.968 93.981 54.409 93.723 53.721L91.315 47.099C90.799 45.723 90.2113 44.82 89.552 44.39C88.8927 43.96 87.7603 43.745 86.155 43.745H84.177C83.919 43.745 83.79 43.874 83.79 44.132V53.549C83.79 54.2083 83.5463 54.7817 83.059 55.269C82.6003 55.7563 82.0413 56 81.382 56H80.307ZM112.955 37.209C111.493 37.209 110.361 37.6247 109.558 38.456C108.784 39.2587 108.297 40.563 108.096 42.369C108.096 42.5983 108.211 42.713 108.44 42.713H116.868C117.097 42.713 117.212 42.5983 117.212 42.369C117.097 38.929 115.678 37.209 112.955 37.209ZM114.03 56.43C110.275 56.43 107.379 55.4553 105.344 53.506C103.337 51.528 102.334 48.6327 102.334 44.82C102.334 41.036 103.237 38.155 105.043 36.177C106.849 34.199 109.458 33.21 112.869 33.21C119.233 33.21 122.501 36.822 122.673 44.046C122.702 44.734 122.458 45.3073 121.942 45.766C121.426 46.2247 120.824 46.454 120.136 46.454H108.397C108.139 46.454 108.039 46.583 108.096 46.841C108.297 48.7617 108.927 50.1663 109.988 51.055C111.077 51.915 112.654 52.345 114.718 52.345C116.008 52.345 117.441 52.13 119.018 51.7C119.534 51.5567 120.007 51.6427 120.437 51.958C120.896 52.2733 121.125 52.7033 121.125 53.248C121.125 53.9073 120.924 54.495 120.523 55.011C120.15 55.4983 119.649 55.7993 119.018 55.914C117.413 56.258 115.75 56.43 114.03 56.43ZM135.01 46.97C132 46.3107 129.85 45.4077 128.56 44.261C127.298 43.1143 126.668 41.6237 126.668 39.789C126.668 37.725 127.427 36.1197 128.947 34.973C130.495 33.7977 132.774 33.21 135.784 33.21C137.676 33.21 139.553 33.382 141.417 33.726C142.047 33.8407 142.549 34.156 142.922 34.672C143.323 35.1593 143.524 35.7327 143.524 36.392C143.524 36.9367 143.309 37.381 142.879 37.725C142.449 38.0403 141.961 38.1263 141.417 37.983C139.811 37.5817 138.12 37.381 136.343 37.381C133.763 37.381 132.473 38.0977 132.473 39.531C132.473 40.219 132.716 40.7923 133.204 41.251C133.691 41.7097 134.522 42.068 135.698 42.326C138.994 42.9853 141.245 43.874 142.449 44.992C143.681 46.11 144.298 47.744 144.298 49.894C144.298 51.958 143.524 53.5633 141.976 54.71C140.428 55.8567 138.177 56.43 135.225 56.43C133.304 56.43 131.34 56.2007 129.334 55.742C128.703 55.5987 128.187 55.269 127.786 54.753C127.384 54.2083 127.184 53.592 127.184 52.904C127.184 52.3593 127.399 51.9437 127.829 51.657C128.287 51.3703 128.775 51.2987 129.291 51.442C131.154 51.958 132.917 52.216 134.58 52.216C137.188 52.216 138.493 51.442 138.493 49.894C138.493 49.1487 138.235 48.561 137.719 48.131C137.231 47.701 136.328 47.314 135.01 46.97ZM149.718 38.671C149.144 38.671 148.657 38.4703 148.256 38.069C147.854 37.639 147.654 37.1373 147.654 36.564C147.654 35.9907 147.854 35.5033 148.256 35.102C148.657 34.7007 149.144 34.5 149.718 34.5H151.782C152.04 34.5 152.169 34.371 152.169 34.113V28.781C152.169 28.1217 152.398 27.5483 152.857 27.061C153.344 26.5737 153.917 26.33 154.577 26.33H155.437C156.096 26.33 156.669 26.5737 157.157 27.061C157.644 27.5483 157.888 28.1217 157.888 28.781V34.113C157.888 34.371 158.017 34.5 158.275 34.5H163.177C163.75 34.5 164.237 34.7007 164.639 35.102C165.069 35.5033 165.284 35.9907 165.284 36.564C165.284 37.1373 165.069 37.639 164.639 38.069C164.237 38.4703 163.75 38.671 163.177 38.671H158.275C158.017 38.671 157.888 38.7857 157.888 39.015V47.701C157.888 49.5643 158.088 50.7683 158.49 51.313C158.891 51.8577 159.722 52.13 160.984 52.13C161.672 52.13 162.188 52.1013 162.532 52.044C163.105 51.9867 163.607 52.1157 164.037 52.431C164.467 52.7463 164.682 53.1763 164.682 53.721C164.682 54.3517 164.467 54.925 164.037 55.441C163.635 55.9283 163.134 56.2007 162.532 56.258C161.27 56.3727 160.324 56.43 159.694 56.43C156.913 56.43 154.964 55.8423 153.846 54.667C152.728 53.463 152.169 51.3273 152.169 48.26V39.015C152.169 38.7857 152.04 38.671 151.782 38.671H149.718ZM183.975 39.187C183.143 37.983 181.882 37.381 180.191 37.381C178.499 37.381 177.224 37.983 176.364 39.187C175.532 40.3623 175.117 42.24 175.117 44.82C175.117 47.4 175.532 49.292 176.364 50.496C177.224 51.6713 178.499 52.259 180.191 52.259C181.882 52.259 183.143 51.6713 183.975 50.496C184.835 49.292 185.265 47.4 185.265 44.82C185.265 42.24 184.835 40.3623 183.975 39.187ZM188.189 53.42C186.297 55.4267 183.631 56.43 180.191 56.43C176.751 56.43 174.07 55.4267 172.15 53.42C170.258 51.3847 169.312 48.518 169.312 44.82C169.312 41.122 170.258 38.2697 172.15 36.263C174.07 34.2277 176.751 33.21 180.191 33.21C183.631 33.21 186.297 34.2277 188.189 36.263C190.109 38.2697 191.07 41.122 191.07 44.82C191.07 48.518 190.109 51.3847 188.189 53.42Z" fill="#081351"/>
<path d="M84.177 29.082L84.0272 28.0933L83.9934 28.0984L83.9601 28.1058L84.177 29.082ZM78.587 55.269L77.8799 55.9761L77.8799 55.9761L78.587 55.269ZM80.264 24.524L80.347 25.5206L80.3577 25.5196L80.264 24.524ZM96.776 26.545L96.1742 27.3437L96.1813 27.3489L96.776 26.545ZM98.238 38.499L97.4272 37.9135L97.4202 37.9235L98.238 38.499ZM93.809 41.767V42.767H93.9736L94.1296 42.7142L93.809 41.767ZM93.809 41.896L94.339 41.048L94.0958 40.896H93.809V41.896ZM97.335 46.97L98.2691 46.613L98.2678 46.6096L97.335 46.97ZM99.915 53.721L100.853 53.3753L100.849 53.364L99.915 53.721ZM99.7 55.269L98.883 54.6923L98.8714 54.7088L98.8604 54.7257L99.7 55.269ZM95.013 55.398L94.4317 56.2117L94.4449 56.2211L94.4583 56.2301L95.013 55.398ZM93.723 53.721L92.7831 54.0628L92.7867 54.0721L93.723 53.721ZM91.315 47.099L92.2548 46.7572L92.2513 46.7479L91.315 47.099ZM89.552 44.39L89.0057 45.2276L89.0057 45.2276L89.552 44.39ZM83.059 55.269L82.3519 54.5619L82.3412 54.5726L82.3308 54.5836L83.059 55.269ZM82.79 29.512V38.843H84.79V29.512H82.79ZM82.79 38.843C82.79 39.1443 82.8801 39.5442 83.2224 39.8484C83.5422 40.1327 83.921 40.187 84.177 40.187V38.187C84.1833 38.187 84.2264 38.1873 84.2918 38.2067C84.3605 38.2271 84.4566 38.2696 84.5511 38.3536C84.7643 38.5431 84.79 38.771 84.79 38.843H82.79ZM84.177 40.187H86.327V38.187H84.177V40.187ZM86.327 40.187C88.967 40.187 91.1265 39.7215 92.6483 38.6358C94.2322 37.5057 94.981 35.8096 94.981 33.726H92.981C92.981 35.283 92.4541 36.3175 91.4867 37.0077C90.4571 37.7423 88.7896 38.187 86.327 38.187V40.187ZM94.981 33.726C94.981 31.8264 94.2658 30.2795 92.7723 29.2567C91.3468 28.2805 89.334 27.867 86.886 27.867V29.867C89.168 29.867 90.7026 30.2633 91.6422 30.9068C92.5137 31.5036 92.981 32.3863 92.981 33.726H94.981ZM86.886 27.867C85.9706 27.867 85.0173 27.9433 84.0272 28.0933L84.3268 30.0707C85.2287 29.9341 86.0814 29.867 86.886 29.867V27.867ZM83.9601 28.1058C83.7015 28.1633 83.3903 28.2893 83.1434 28.5635C82.8834 28.8525 82.79 29.1997 82.79 29.512H84.79C84.79 29.595 84.7611 29.7558 84.63 29.9015C84.5122 30.0324 84.3945 30.0581 84.3939 30.0582L83.9601 28.1058ZM80.307 55C79.926 55 79.6034 54.8712 79.2941 54.5619L77.8799 55.9761C78.5453 56.6415 79.3693 57 80.307 57V55ZM79.2941 54.5619C78.9848 54.2526 78.856 53.93 78.856 53.549H76.856C76.856 54.4866 77.2145 55.3107 77.8799 55.9761L79.2941 54.5619ZM78.856 53.549V27.276H76.856V53.549H78.856ZM78.856 27.276C78.856 26.8325 78.9963 26.4424 79.3089 26.0711L77.7791 24.7829C77.1744 25.501 76.856 26.3435 76.856 27.276H78.856ZM79.3089 26.0711C79.6022 25.7228 79.9333 25.555 80.347 25.5205L80.1809 23.5275C79.2186 23.6076 78.4031 24.0419 77.7791 24.7829L79.3089 26.0711ZM80.3577 25.5196C82.7657 25.293 85.085 25.18 87.316 25.18V23.18C85.0176 23.18 82.6356 23.2964 80.1703 23.5284L80.3577 25.5196ZM87.316 25.18C91.435 25.18 94.3322 25.9558 96.1742 27.3437L97.3777 25.7463C95.0345 23.9808 91.625 23.18 87.316 23.18V25.18ZM96.1813 27.3489C97.9935 28.6895 98.915 30.5699 98.915 33.124H100.915C100.915 30.0021 99.7438 27.4965 97.3707 25.7411L96.1813 27.3489ZM98.915 33.124C98.915 34.9638 98.4139 36.5475 97.4273 37.9135L99.0487 39.0845C100.298 37.3545 100.915 35.3549 100.915 33.124H98.915ZM97.4202 37.9235C96.458 39.2908 95.1592 40.2543 93.4884 40.8198L94.1296 42.7142C96.1855 42.0184 97.8393 40.8032 99.0558 39.0745L97.4202 37.9235ZM93.809 40.767C93.6405 40.767 93.3305 40.8098 93.0696 41.0707C92.8088 41.3315 92.766 41.6415 92.766 41.81H94.766C94.766 41.9498 94.7304 42.2383 94.4839 42.4848C94.2373 42.7314 93.9488 42.767 93.809 42.767V40.767ZM92.766 41.81C92.766 41.8897 92.7707 42.0984 92.8823 42.3217C92.9452 42.4475 93.0544 42.6019 93.2355 42.7227C93.4228 42.8476 93.6268 42.896 93.809 42.896V40.896C93.9768 40.896 94.1683 40.9408 94.3449 41.0586C94.5152 41.1722 94.6154 41.3158 94.6712 41.4273C94.7685 41.6219 94.766 41.7876 94.766 41.81H92.766ZM93.279 42.744C94.3849 43.4352 95.4582 44.8871 96.4022 47.3304L98.2678 46.6096C97.2625 44.0076 95.9851 42.0768 94.339 41.048L93.279 42.744ZM96.4009 47.327L98.9809 54.078L100.849 53.364L98.2691 46.613L96.4009 47.327ZM98.9766 54.0667C99.0599 54.2926 99.0436 54.4649 98.883 54.6923L100.517 55.8457C101.044 55.0985 101.171 54.2387 100.853 53.3753L98.9766 54.0667ZM98.8604 54.7257C98.7266 54.9326 98.596 55 98.367 55V57C99.2846 57 100.043 56.5801 100.54 55.8123L98.8604 54.7257ZM98.367 55H97.034V57H98.367V55ZM97.034 55C96.4798 55 96.0002 54.8543 95.5677 54.5659L94.4583 56.2301C95.2297 56.7443 96.0975 57 97.034 57V55ZM95.5942 54.5843C95.1527 54.2689 94.847 53.8705 94.6593 53.3699L92.7867 54.0721C93.1149 54.9475 93.6692 55.6671 94.4317 56.2117L95.5942 54.5843ZM94.6628 53.3793L92.2548 46.7573L90.3752 47.4407L92.7832 54.0627L94.6628 53.3793ZM92.2513 46.7479C91.7165 45.3216 91.0347 44.1631 90.0983 43.5524L89.0057 45.2276C89.3879 45.4769 89.8815 46.1244 90.3787 47.4501L92.2513 46.7479ZM90.0983 43.5524C89.1787 42.9527 87.7896 42.745 86.155 42.745V44.745C87.731 44.745 88.6066 44.9673 89.0057 45.2276L90.0983 43.5524ZM86.155 42.745H84.177V44.745H86.155V42.745ZM84.177 42.745C83.8938 42.745 83.4978 42.8165 83.1796 43.1346C82.8614 43.4528 82.79 43.8489 82.79 44.132H84.79C84.79 44.1571 84.783 44.3597 84.5938 44.5489C84.4047 44.738 84.2021 44.745 84.177 44.745V42.745ZM82.79 44.132V53.549H84.79V44.132H82.79ZM82.79 53.549C82.79 53.93 82.6611 54.2526 82.3519 54.5619L83.7661 55.9761C84.4315 55.3107 84.79 54.4866 84.79 53.549H82.79ZM82.3308 54.5836C82.0579 54.8736 81.7609 55 81.382 55V57C82.3217 57 83.1428 56.6391 83.7872 55.9544L82.3308 54.5836ZM81.382 55H80.307V57H81.382V55ZM109.558 38.456L108.839 37.7614L108.838 37.7619L109.558 38.456ZM108.096 42.369L107.102 42.2586L107.096 42.3136V42.369H108.096ZM117.212 42.369H118.212V42.3523L118.212 42.3357L117.212 42.369ZM105.344 53.506L104.642 54.2182L104.647 54.2232L104.652 54.2282L105.344 53.506ZM105.043 36.177L104.305 35.5027L104.305 35.5027L105.043 36.177ZM122.673 44.046L121.673 44.0698L121.674 44.0787L121.674 44.0876L122.673 44.046ZM121.942 45.766L121.278 45.0186L121.278 45.0186L121.942 45.766ZM108.096 46.841L109.091 46.7371L109.085 46.6801L109.072 46.6241L108.096 46.841ZM109.988 51.055L109.346 51.8215L109.357 51.8309L109.368 51.8399L109.988 51.055ZM119.018 51.7L119.281 52.6648L119.286 52.6635L119.018 51.7ZM120.437 51.958L119.846 52.7644L119.858 52.7734L119.871 52.782L120.437 51.958ZM120.523 55.011L119.734 54.397L119.729 54.4036L120.523 55.011ZM119.018 55.914L118.839 54.9301L118.824 54.9329L118.809 54.9362L119.018 55.914ZM112.955 36.209C111.298 36.209 109.877 36.6862 108.839 37.7614L110.277 39.1506C110.845 38.5631 111.688 38.209 112.955 38.209V36.209ZM108.838 37.7619C107.841 38.7961 107.313 40.3605 107.102 42.2586L109.09 42.4794C109.28 40.7655 109.727 39.7213 110.278 39.1501L108.838 37.7619ZM107.096 42.369C107.096 42.6378 107.164 43.0231 107.475 43.3341C107.786 43.6451 108.171 43.713 108.44 43.713V41.713C108.48 41.713 108.693 41.7235 108.889 41.9199C109.086 42.1162 109.096 42.3295 109.096 42.369H107.096ZM108.44 43.713H116.868V41.713H108.44V43.713ZM116.868 43.713C117.137 43.713 117.522 43.6451 117.833 43.3341C118.144 43.0231 118.212 42.6378 118.212 42.369H116.212C116.212 42.3295 116.223 42.1162 116.419 41.9199C116.615 41.7235 116.829 41.713 116.868 41.713V43.713ZM118.212 42.3357C118.151 40.5081 117.741 38.9634 116.833 37.8626C115.892 36.7217 114.543 36.209 112.955 36.209V38.209C114.091 38.209 114.813 38.5563 115.29 39.1354C115.801 39.7546 116.159 40.7899 116.213 42.4023L118.212 42.3357ZM114.03 55.43C110.445 55.43 107.83 54.5021 106.036 52.7838L104.652 54.2282C106.929 56.4086 110.105 57.43 114.03 57.43V55.43ZM106.046 52.7938C104.29 51.0626 103.334 48.4623 103.334 44.82H101.334C101.334 48.803 102.385 51.9934 104.642 54.2182L106.046 52.7938ZM103.334 44.82C103.334 41.1827 104.202 38.5811 105.782 36.8513L104.305 35.5027C102.272 37.7289 101.334 40.8893 101.334 44.82H103.334ZM105.782 36.8513C107.349 35.1344 109.657 34.21 112.869 34.21V32.21C109.259 32.21 106.349 33.2636 104.305 35.5027L105.782 36.8513ZM112.869 34.21C115.86 34.21 117.961 35.0529 119.352 36.5899C120.763 38.1494 121.59 40.5849 121.673 44.0698L123.673 44.0222C123.584 40.2831 122.692 37.3006 120.835 35.2481C118.957 33.1731 116.242 32.21 112.869 32.21V34.21ZM121.674 44.0876C121.69 44.4748 121.57 44.7588 121.278 45.0186L122.606 46.5134C123.346 45.8559 123.713 44.9932 123.672 44.0044L121.674 44.0876ZM121.278 45.0186C120.944 45.3152 120.578 45.454 120.136 45.454V47.454C121.07 47.454 121.908 47.1342 122.606 46.5134L121.278 45.0186ZM120.136 45.454H108.397V47.454H120.136V45.454ZM108.397 45.454C108.14 45.454 107.667 45.5152 107.339 45.9368C107.018 46.3498 107.066 46.8153 107.12 47.0579L109.072 46.6241C109.074 46.6312 109.087 46.6899 109.077 46.7821C109.065 46.8818 109.026 47.0254 108.918 47.1647C108.808 47.3052 108.675 47.3819 108.572 47.4191C108.477 47.4532 108.41 47.454 108.397 47.454V45.454ZM107.101 46.9449C107.318 49.0205 108.019 50.7096 109.346 51.8215L110.63 50.2885C109.836 49.6231 109.275 48.5028 109.091 46.7371L107.101 46.9449ZM109.368 51.8399C110.702 52.8927 112.534 53.345 114.718 53.345V51.345C112.774 51.345 111.453 50.9373 110.608 50.2701L109.368 51.8399ZM114.718 53.345C116.117 53.345 117.64 53.1122 119.281 52.6648L118.755 50.7352C117.242 51.1478 115.899 51.345 114.718 51.345V53.345ZM119.286 52.6635C119.508 52.6018 119.664 52.6312 119.846 52.7644L121.028 51.1516C120.35 50.6541 119.56 50.5115 118.75 50.7365L119.286 52.6635ZM119.871 52.782C120.065 52.9157 120.125 53.0412 120.125 53.248H122.125C122.125 52.3655 121.727 51.631 121.004 51.134L119.871 52.782ZM120.125 53.248C120.125 53.687 119.997 54.0582 119.734 54.3971L121.312 55.6249C121.852 54.9318 122.125 54.1276 122.125 53.248H120.125ZM119.729 54.4036C119.515 54.6837 119.237 54.8578 118.839 54.9301L119.197 56.8979C120.06 56.7409 120.786 56.313 121.317 55.6184L119.729 54.4036ZM118.809 54.9362C117.275 55.2648 115.683 55.43 114.03 55.43V57.43C115.817 57.43 117.55 57.2512 119.228 56.8918L118.809 54.9362ZM135.01 46.97L135.262 46.0024L135.243 45.9974L135.224 45.9932L135.01 46.97ZM128.56 44.261L127.887 45.001L127.895 45.0084L128.56 44.261ZM128.947 34.973L129.549 35.7712L129.551 35.7694L128.947 34.973ZM141.417 33.726L141.235 34.7094L141.238 34.7099L141.417 33.726ZM142.922 34.672L142.111 35.2575L142.13 35.2832L142.15 35.3077L142.922 34.672ZM142.879 37.725L143.47 38.5314L143.487 38.519L143.503 38.5059L142.879 37.725ZM141.417 37.983L141.671 37.0159L141.659 37.0129L141.417 37.983ZM133.204 41.251L133.889 40.5228L133.889 40.5228L133.204 41.251ZM135.698 42.326L135.483 43.3027L135.492 43.3047L135.502 43.3066L135.698 42.326ZM142.449 44.992L141.768 45.7248L141.777 45.7327L142.449 44.992ZM141.976 54.71L142.571 55.5136L142.571 55.5136L141.976 54.71ZM129.334 55.742L129.557 54.7671L129.555 54.7669L129.334 55.742ZM127.786 54.753L126.981 55.3462L126.988 55.3567L126.996 55.3669L127.786 54.753ZM127.829 51.657L127.299 50.809L127.286 50.8168L127.274 50.8249L127.829 51.657ZM129.291 51.442L129.023 52.4055L129.024 52.4057L129.291 51.442ZM137.719 48.131L137.057 48.8808L137.068 48.8902L137.079 48.8992L137.719 48.131ZM135.224 45.9932C132.268 45.3458 130.321 44.4887 129.224 43.5136L127.895 45.0084C129.378 46.3266 131.731 47.2756 134.796 47.9468L135.224 45.9932ZM129.232 43.5211C128.197 42.5796 127.668 41.366 127.668 39.789H125.668C125.668 41.8813 126.4 43.6491 127.887 45.0009L129.232 43.5211ZM127.668 39.789C127.668 38.0081 128.304 36.7112 129.549 35.7712L128.344 34.1748C126.551 35.5282 125.668 37.4419 125.668 39.789H127.668ZM129.551 35.7694C130.853 34.781 132.879 34.21 135.784 34.21V32.21C132.668 32.21 130.136 32.8143 128.342 34.1766L129.551 35.7694ZM135.784 34.21C137.615 34.21 139.432 34.3764 141.235 34.7094L141.598 32.7426C139.675 32.3876 137.737 32.21 135.784 32.21V34.21ZM141.238 34.7099C141.616 34.7787 141.891 34.9526 142.111 35.2575L143.732 34.0865C143.207 33.3594 142.478 32.9026 141.596 32.7421L141.238 34.7099ZM142.15 35.3077C142.397 35.6076 142.524 35.9535 142.524 36.392H144.524C144.524 35.5119 144.249 34.7111 143.694 34.0363L142.15 35.3077ZM142.524 36.392C142.524 36.629 142.45 36.7875 142.254 36.9441L143.503 38.5059C144.168 37.9745 144.524 37.2443 144.524 36.392H142.524ZM142.287 36.9186C142.116 37.0443 141.943 37.0874 141.671 37.0159L141.162 38.9501C141.98 39.1652 142.781 39.0364 143.47 38.5314L142.287 36.9186ZM141.659 37.0129C139.969 36.5903 138.196 36.381 136.343 36.381V38.381C138.044 38.381 139.654 38.573 141.174 38.9531L141.659 37.0129ZM136.343 36.381C134.993 36.381 133.821 36.5628 132.955 37.0443C132.506 37.2935 132.123 37.632 131.857 38.0759C131.59 38.5213 131.473 39.0179 131.473 39.531H133.473C133.473 39.3274 133.517 39.197 133.572 39.1049C133.628 39.0113 133.729 38.9018 133.926 38.7927C134.349 38.5575 135.113 38.381 136.343 38.381V36.381ZM131.473 39.531C131.473 40.486 131.824 41.3256 132.518 41.9792L133.889 40.5228C133.609 40.259 133.473 39.952 133.473 39.531H131.473ZM132.518 41.9792C133.205 42.6256 134.253 43.0326 135.483 43.3027L135.912 41.3493C134.792 41.1034 134.177 40.7937 133.889 40.5228L132.518 41.9792ZM135.502 43.3066C138.771 43.9604 140.781 44.8081 141.768 45.7248L143.129 44.2592C141.708 42.9399 139.218 42.0102 135.894 41.3454L135.502 43.3066ZM141.777 45.7327C142.744 46.6095 143.298 47.9387 143.298 49.894H145.298C145.298 47.5493 144.619 45.6105 143.121 44.2513L141.777 45.7327ZM143.298 49.894C143.298 51.6675 142.653 52.9635 141.38 53.9064L142.571 55.5136C144.394 54.1631 145.298 52.2485 145.298 49.894H143.298ZM141.38 53.9064C140.075 54.8737 138.07 55.43 135.225 55.43V57.43C138.284 57.43 140.781 56.8396 142.571 55.5136L141.38 53.9064ZM135.225 55.43C133.384 55.43 131.495 55.2103 129.557 54.7671L129.111 56.7169C131.185 57.191 133.224 57.43 135.225 57.43V55.43ZM129.555 54.7669C129.153 54.6753 128.836 54.4748 128.575 54.1391L126.996 55.3669C127.538 56.0632 128.254 56.522 129.112 56.7171L129.555 54.7669ZM128.591 54.1598C128.318 53.7901 128.184 53.3824 128.184 52.904H126.184C126.184 53.8016 126.45 54.6266 126.981 55.3462L128.591 54.1598ZM128.184 52.904C128.184 52.6722 128.249 52.5786 128.383 52.4891L127.274 50.8249C126.548 51.3087 126.184 52.0465 126.184 52.904H128.184ZM128.359 52.505C128.582 52.3653 128.78 52.3381 129.023 52.4055L129.558 50.4785C128.769 50.2592 127.993 50.3753 127.299 50.809L128.359 52.505ZM129.024 52.4057C130.96 52.942 132.814 53.216 134.58 53.216V51.216C133.02 51.216 131.348 50.974 129.558 50.4783L129.024 52.4057ZM134.58 53.216C135.95 53.216 137.143 53.0185 138.025 52.4955C138.988 51.9238 139.493 51.012 139.493 49.894H137.493C137.493 50.324 137.345 50.5732 137.004 50.7755C136.581 51.0265 135.818 51.216 134.58 51.216V53.216ZM139.493 49.894C139.493 48.8887 139.13 48.0051 138.359 47.3628L137.079 48.8992C137.34 49.1169 137.493 49.4087 137.493 49.894H139.493ZM138.38 47.3812C137.704 46.7847 136.601 46.3517 135.262 46.0024L134.757 47.9376C136.056 48.2763 136.758 48.6173 137.057 48.8808L138.38 47.3812ZM148.256 38.069L147.525 38.7513L147.536 38.7639L147.549 38.7761L148.256 38.069ZM148.256 35.102L147.549 34.3949L147.549 34.3949L148.256 35.102ZM152.857 27.061L152.15 26.3539L152.139 26.3646L152.129 26.3756L152.857 27.061ZM157.157 27.061L157.864 26.3539L157.864 26.3539L157.157 27.061ZM164.639 35.102L163.932 35.8091L163.944 35.8213L163.956 35.8331L164.639 35.102ZM164.639 38.069L163.932 37.3619L163.932 37.3619L164.639 38.069ZM162.532 52.044L162.432 51.049L162.4 51.0522L162.367 51.0576L162.532 52.044ZM164.037 52.431L163.445 53.2374L163.445 53.2374L164.037 52.431ZM164.037 55.441L163.268 54.8008L163.265 54.8053L164.037 55.441ZM162.532 56.258L162.622 57.2539L162.627 57.2535L162.532 56.258ZM153.846 54.667L153.113 55.3475L153.121 55.3562L153.846 54.667ZM149.718 37.671C149.407 37.671 149.174 37.5736 148.963 37.3619L147.549 38.7761C148.14 39.3671 148.882 39.671 149.718 39.671V37.671ZM148.987 37.3867C148.753 37.1365 148.654 36.8769 148.654 36.564H146.654C146.654 37.3978 146.955 38.1415 147.525 38.7513L148.987 37.3867ZM148.654 36.564C148.654 36.2529 148.751 36.0208 148.963 35.8091L147.549 34.3949C146.958 34.9859 146.654 35.7285 146.654 36.564H148.654ZM148.963 35.8091C149.174 35.5974 149.407 35.5 149.718 35.5V33.5C148.882 33.5 148.14 33.8039 147.549 34.3949L148.963 35.8091ZM149.718 35.5H151.782V33.5H149.718V35.5ZM151.782 35.5C152.065 35.5 152.461 35.4285 152.779 35.1104C153.097 34.7922 153.169 34.3961 153.169 34.113H151.169C151.169 34.0879 151.176 33.8853 151.365 33.6961C151.554 33.507 151.757 33.5 151.782 33.5V35.5ZM153.169 34.113V28.781H151.169V34.113H153.169ZM153.169 28.781C153.169 28.3806 153.298 28.0513 153.585 27.7464L152.129 26.3756C151.498 27.0454 151.169 27.8627 151.169 28.781H153.169ZM153.564 27.7681C153.873 27.4588 154.196 27.33 154.577 27.33V25.33C153.639 25.33 152.815 25.6885 152.15 26.3539L153.564 27.7681ZM154.577 27.33H155.437V25.33H154.577V27.33ZM155.437 27.33C155.818 27.33 156.14 27.4588 156.45 27.7681L157.864 26.3539C157.198 25.6885 156.374 25.33 155.437 25.33V27.33ZM156.45 27.7681C156.759 28.0774 156.888 28.4 156.888 28.781H158.888C158.888 27.8434 158.529 27.0193 157.864 26.3539L156.45 27.7681ZM156.888 28.781V34.113H158.888V28.781H156.888ZM156.888 34.113C156.888 34.3961 156.959 34.7922 157.277 35.1104C157.596 35.4285 157.992 35.5 158.275 35.5V33.5C158.3 33.5 158.502 33.507 158.692 33.6961C158.881 33.8853 158.888 34.0879 158.888 34.113H156.888ZM158.275 35.5H163.177V33.5H158.275V35.5ZM163.177 35.5C163.488 35.5 163.72 35.5974 163.932 35.8091L165.346 34.3949C164.755 33.8039 164.012 33.5 163.177 33.5V35.5ZM163.956 35.8331C164.19 36.0508 164.284 36.2759 164.284 36.564H166.284C166.284 35.7055 165.948 34.9559 165.321 34.3709L163.956 35.8331ZM164.284 36.564C164.284 36.8548 164.187 37.1068 163.932 37.3619L165.346 38.7761C165.951 38.1712 166.284 37.4199 166.284 36.564H164.284ZM163.932 37.3619C163.72 37.5736 163.488 37.671 163.177 37.671V39.671C164.012 39.671 164.755 39.3671 165.346 38.7761L163.932 37.3619ZM163.177 37.671H158.275V39.671H163.177V37.671ZM158.275 37.671C158.019 37.671 157.64 37.7253 157.32 38.0096C156.978 38.3138 156.888 38.7137 156.888 39.015H158.888C158.888 39.087 158.862 39.3149 158.649 39.5044C158.554 39.5884 158.458 39.6309 158.389 39.6513C158.324 39.6707 158.281 39.671 158.275 39.671V37.671ZM156.888 39.015V47.701H158.888V39.015H156.888ZM156.888 47.701C156.888 48.6623 156.939 49.4892 157.052 50.1659C157.16 50.8172 157.343 51.4424 157.685 51.9062L159.295 50.7198C159.235 50.6389 159.117 50.3898 159.025 49.8371C158.937 49.3098 158.888 48.6031 158.888 47.701H156.888ZM157.685 51.9062C158.388 52.8608 159.664 53.13 160.984 53.13V51.13C159.781 51.13 159.394 50.8546 159.295 50.7198L157.685 51.9062ZM160.984 53.13C161.685 53.13 162.268 53.1018 162.696 53.0304L162.367 51.0576C162.108 51.1009 161.659 51.13 160.984 51.13V53.13ZM162.631 53.039C162.98 53.0041 163.231 53.0804 163.445 53.2374L164.628 51.6246C163.982 51.151 163.23 50.9692 162.432 51.049L162.631 53.039ZM163.445 53.2374C163.612 53.3596 163.682 53.4868 163.682 53.721H165.682C165.682 52.8659 165.321 52.133 164.628 51.6246L163.445 53.2374ZM163.682 53.721C163.682 54.1018 163.559 54.4519 163.268 54.8008L164.805 56.0812C165.374 55.3981 165.682 54.6015 165.682 53.721H163.682ZM163.265 54.8053C163.024 55.0975 162.762 55.2316 162.437 55.2625L162.627 57.2535C163.506 57.1698 164.247 56.7591 164.809 56.0767L163.265 54.8053ZM162.441 55.2621C161.186 55.3762 160.277 55.43 159.694 55.43V57.43C160.372 57.43 161.354 57.3692 162.622 57.2539L162.441 55.2621ZM159.694 55.43C157.003 55.43 155.402 54.8522 154.57 53.9778L153.121 55.3562C154.525 56.8324 156.823 57.43 159.694 57.43V55.43ZM154.579 53.9865C153.73 53.0726 153.169 51.2693 153.169 48.26H151.169C151.169 51.3854 151.726 53.8534 153.113 55.3475L154.579 53.9865ZM153.169 48.26V39.015H151.169V48.26H153.169ZM153.169 39.015C153.169 38.7137 153.079 38.3138 152.736 38.0096C152.417 37.7253 152.038 37.671 151.782 37.671V39.671C151.775 39.671 151.732 39.6707 151.667 39.6513C151.598 39.6309 151.502 39.5884 151.408 39.5044C151.194 39.3149 151.169 39.087 151.169 39.015H153.169ZM151.782 37.671H149.718V39.671H151.782V37.671ZM183.975 39.187L183.152 39.7552L183.159 39.7665L183.168 39.7775L183.975 39.187ZM176.364 39.187L175.55 38.6058L175.547 38.6095L176.364 39.187ZM176.364 50.496L175.541 51.0642L175.548 51.0755L175.557 51.0865L176.364 50.496ZM183.975 50.496L183.161 49.9148L183.158 49.9185L183.975 50.496ZM188.189 53.42L187.461 52.7337L187.461 52.734L188.189 53.42ZM172.15 53.42L171.417 54.1008L171.422 54.1062L171.427 54.1115L172.15 53.42ZM172.15 36.263L171.422 35.5767L171.422 35.577L172.15 36.263ZM188.189 36.263L187.456 36.9438L187.461 36.9492L187.466 36.9545L188.189 36.263ZM184.798 38.6188C183.748 37.0991 182.151 36.381 180.191 36.381V38.381C181.613 38.381 182.538 38.8669 183.152 39.7552L184.798 38.6188ZM180.191 36.381C178.23 36.381 176.627 37.0985 175.55 38.6058L177.177 39.7682C177.821 38.8675 178.769 38.381 180.191 38.381V36.381ZM175.547 38.6095C174.534 40.0418 174.117 42.1766 174.117 44.82H176.117C176.117 42.3034 176.53 40.6828 177.18 39.7645L175.547 38.6095ZM174.117 44.82C174.117 47.4667 174.535 49.6082 175.541 51.0642L177.187 49.9278C176.529 48.9758 176.117 47.3333 176.117 44.82H174.117ZM175.557 51.0865C176.637 52.5632 178.239 53.259 180.191 53.259V51.259C178.759 51.259 177.81 50.7795 177.171 49.9055L175.557 51.0865ZM180.191 53.259C182.142 53.259 183.738 52.5627 184.791 51.0735L183.158 49.9185C182.549 50.78 181.622 51.259 180.191 51.259V53.259ZM184.788 51.0772C185.83 49.6184 186.265 47.4709 186.265 44.82H184.265C184.265 47.3291 183.839 48.9656 183.161 49.9148L184.788 51.0772ZM186.265 44.82C186.265 42.1724 185.832 40.0315 184.782 38.5965L183.168 39.7775C183.838 40.6932 184.265 42.3076 184.265 44.82H186.265ZM187.461 52.734C185.803 54.4929 183.428 55.43 180.191 55.43V57.43C183.833 57.43 186.791 56.3604 188.916 54.106L187.461 52.734ZM180.191 55.43C176.954 55.43 174.561 54.4931 172.872 52.7285L171.427 54.1115C173.58 56.3603 176.547 57.43 180.191 57.43V55.43ZM172.882 52.7392C171.212 50.9431 170.312 48.3508 170.312 44.82H168.312C168.312 48.6852 169.303 51.8262 171.417 54.1008L172.882 52.7392ZM170.312 44.82C170.312 41.2882 171.213 38.7142 172.877 36.949L171.422 35.577C169.302 37.8251 168.312 40.9558 168.312 44.82H170.312ZM172.877 36.9493C174.567 35.1586 176.958 34.21 180.191 34.21V32.21C176.543 32.21 173.574 33.2968 171.422 35.5767L172.877 36.9493ZM180.191 34.21C183.424 34.21 185.797 35.1587 187.456 36.9438L188.921 35.5822C186.796 33.2966 183.838 32.21 180.191 32.21V34.21ZM187.466 36.9545C189.156 38.7201 190.07 41.292 190.07 44.82H192.07C192.07 40.952 191.062 37.8193 188.911 35.5715L187.466 36.9545ZM190.07 44.82C190.07 48.3471 189.156 50.9373 187.461 52.7337L188.916 54.1063C191.062 51.832 192.07 48.6889 192.07 44.82H190.07Z" fill="white"/>
</svg>
